<?xml version="1.0" standalone="no"?>
<!DOCTYPE svg PUBLIC "-//W3C//DTD SVG 20010904//EN"
 "http://www.w3.org/TR/2001/REC-SVG-20010904/DTD/svg10.dtd">
<svg version="1.0" xmlns="http://www.w3.org/2000/svg"
 width="70.000000pt" height="70.000000pt" viewBox="0 0 70.000000 70.000000"
 preserveAspectRatio="xMidYMid meet">

<g transform="translate(0.000000,70.000000) scale(0.100000,-0.100000)"
fill="#000000" stroke="none">
<path d="M190 514 l0 -67 68 6 c37 4 109 7 160 7 l92 0 0 60 0 60 -160 0 -160
0 0 -66z"/>
<path d="M190 345 l0 -55 160 0 160 0 0 55 0 55 -160 0 -160 0 0 -55z"/>
<path d="M190 181 l0 -71 160 0 160 0 0 59 0 60 -112 5 c-62 2 -134 8 -160 11
l-48 7 0 -71z"/>
</g>
</svg>
