<?xml version="1.0" standalone="no"?>
<!DOCTYPE svg PUBLIC "-//W3C//DTD SVG 20010904//EN"
 "http://www.w3.org/TR/2001/REC-SVG-20010904/DTD/svg10.dtd">
<svg version="1.0" xmlns="http://www.w3.org/2000/svg"
 width="128.000000pt" height="128.000000pt" viewBox="0 0 128.000000 128.000000"
 preserveAspectRatio="xMidYMid meet">

<g transform="translate(0.000000,128.000000) scale(0.100000,-0.100000)"
fill="#000000" stroke="none">
<path d="M340 940 l0 -120 90 0 c73 0 90 3 90 15 0 13 30 15 210 15 l210 0 0
105 0 105 -300 0 -300 0 0 -120z"/>
<path d="M340 635 l0 -105 300 0 300 0 0 105 0 105 -300 0 -300 0 0 -105z"/>
<path d="M340 330 l0 -120 300 0 300 0 0 105 0 105 -210 0 c-180 0 -210 2
-210 15 0 12 -17 15 -90 15 l-90 0 0 -120z"/>
</g>
</svg>
